<?xml version="1.0" standalone="no"?><!DOCTYPE svg PUBLIC "-//W3C//DTD SVG 1.1//EN" "http://www.w3.org/Graphics/SVG/1.1/DTD/svg11.dtd"><svg t="1749136943914" class="icon" viewBox="0 0 1024 1024" version="1.1" xmlns="http://www.w3.org/2000/svg" p-id="2102" xmlns:xlink="http://www.w3.org/1999/xlink" width="200" height="200"><path d="M297.44 697.6a285.6 285.6 0 0 0 58.72 52.96 285.6 285.6 0 0 1-58.72-52.96zM514.88 799.2zM514.88 231.04zM273.76 664.8a282.56 282.56 0 0 1-14.4-26.24 282.56 282.56 0 0 0 14.4 26.24zM514.88 231.04c-6.4 0-12.64 0-18.88 0.96-144 13.12-217.28 176-217.28 283.04S352 785.12 496 798.24c6.24 0 12.32 0.96 18.56 0.96a284 284 0 0 0 0-568.16z" fill="#FF841F" p-id="2103"></path><path d="M379.52 265.28A282.4 282.4 0 0 1 496 232a282.4 282.4 0 0 0-116.48 33.28zM496 798.24a282.4 282.4 0 0 1-116.8-33.28 282.4 282.4 0 0 0 116.8 33.28z" fill="#FF841F" p-id="2104"></path><path d="M326.88 523.04a8 8 0 0 1-8-8v-11.36a8.16 8.16 0 0 1 8.32-7.68 8 8 0 0 1 7.68 8.32v10.72a8 8 0 0 1-8 8zM335.04 456.32h-1.76a8 8 0 0 1-5.92-9.6 364.96 364.96 0 0 1 32-87.68 8 8 0 1 1 14.08 7.52 348.48 348.48 0 0 0-32 83.84 8 8 0 0 1-6.4 5.92z" fill="#FFFFFF" p-id="2105"></path><path d="M514.88 231.04a286.24 286.24 0 0 0-32 1.92 284 284 0 0 1 0 564.32 284 284 0 1 0 32-566.24z" fill="#FF5B1A" p-id="2106"></path><path d="M278.88 515.04c0-112 79.2-284 236-284a284 284 0 1 0 0 568.16c-156.8 0-236-175.2-236-284.16z" fill="#FFFFFF" p-id="2107"></path><path d="M514.88 807.2a292.32 292.32 0 0 1-292-292.16 8 8 0 0 1 16 0A275.84 275.84 0 1 0 272 382.56a8 8 0 1 1-14.08-7.68 292 292 0 1 1 256 432z" fill="#7B365D" p-id="2108"></path><path d="M232.8 490.4h-0.96a8 8 0 0 1-7.04-8.8 291.2 291.2 0 0 1 17.12-70.08 8 8 0 0 1 15.04 5.76 274.72 274.72 0 0 0-16 66.24 8 8 0 0 1-8.16 6.88zM494.72 272s-2.4 6.56-5.6 4.32-16 1.12-9.44 6.08c9.6 7.36-9.28 10.72-3.68 16s13.6 0 16.96 1.28-4.64 7.68 0 11.68 16.8 4.96 16-3.68 6.88-3.68 7.84 0 24.64 7.36 16-1.6 4-4.96 4-4.96 20.96-1.92 7.68-10.72-0.96-9.76-0.96-9.76 11.84-1.44-10.4-5.6c-11.84-2.24-10.08-4.96-10.08-4.96s6.72-14.4-14.88 0c-4.16 3.84-17.12-6.08-13.44 1.92z" fill="#7B365D" p-id="2109"></path><path d="M497.44 290.88a16.64 9.44 0 1 0 33.28 0 16.64 9.44 0 1 0-33.28 0Z" fill="#7B365D" p-id="2110"></path><path d="M514.24 297.92H512a8 8 0 0 1-5.92-9.6 190.08 190.08 0 0 0-20.96-139.68 8 8 0 0 1 13.76-8 205.92 205.92 0 0 1 22.72 151.36 8 8 0 0 1-7.36 5.92z" fill="#7B365D" p-id="2111"></path><path d="M554.4 167.36C510.56 208 512 281.12 512 281.12a183.52 183.52 0 0 0 26.4 0 132.16 132.16 0 0 0 64-30.72c40.32-37.76 42.24-106.56 42.24-117.12a149.44 149.44 0 0 0-90.24 34.08z" fill="#A5DC69" p-id="2112"></path><path d="M411.52 140.8c0 6.72 1.12 58.08 32 87.36A113.6 113.6 0 0 0 512 254.4s1.12-56-32-87.36a113.6 113.6 0 0 0-68.48-26.24z" fill="#A5DC69" p-id="2113"></path><path d="M640 629.6m-13.92 0a13.92 13.92 0 1 0 27.84 0 13.92 13.92 0 1 0-27.84 0Z" fill="#FF5B1A" p-id="2114"></path><path d="M583.36 629.6m-13.92 0a13.92 13.92 0 1 0 27.84 0 13.92 13.92 0 1 0-27.84 0Z" fill="#FF5B1A" p-id="2115"></path><path d="M626.08 680.32m-13.92 0a13.92 13.92 0 1 0 27.84 0 13.92 13.92 0 1 0-27.84 0Z" fill="#FF5B1A" p-id="2116"></path><path d="M569.44 686.08m-13.92 0a13.92 13.92 0 1 0 27.84 0 13.92 13.92 0 1 0-27.84 0Z" fill="#FF5B1A" p-id="2117"></path><path d="M612.16 575.2m-13.92 0a13.92 13.92 0 1 0 27.84 0 13.92 13.92 0 1 0-27.84 0Z" fill="#FF5B1A" p-id="2118"></path><path d="M569.44 733.92m-13.92 0a13.92 13.92 0 1 0 27.84 0 13.92 13.92 0 1 0-27.84 0Z" fill="#FF5B1A" p-id="2119"></path><path d="M522.4 650.88m-13.92 0a13.92 13.92 0 1 0 27.84 0 13.92 13.92 0 1 0-27.84 0Z" fill="#FF5B1A" p-id="2120"></path><path d="M508.48 713.92m-13.92 0a13.92 13.92 0 1 0 27.84 0 13.92 13.92 0 1 0-27.84 0Z" fill="#FF5B1A" p-id="2121"></path></svg>